<svg width="346" height="218" viewBox="0 0 346 218" fill="none" xmlns="http://www.w3.org/2000/svg">
<path fill-rule="evenodd" clip-rule="evenodd" d="M50.542 0.39917C22.9278 0.39917 0.541992 22.785 0.541992 50.3992V167.109C0.541992 194.723 22.9278 217.109 50.542 217.109H295.751C323.365 217.109 345.751 194.723 345.751 167.109V50.3992C345.751 22.7849 323.365 0.39917 295.751 0.39917H50.542ZM240.073 106.876L204.724 86.4671V103.341H177.157V78.5315H194.031L173.622 43.1825L153.213 78.5315L170.087 78.5315V103.341H141.569V86.4671L106.22 106.876L141.569 127.285V110.411L170.087 110.411V138.977H153.213L173.622 174.326L194.031 138.977H177.157V110.411H204.724V127.285L240.073 106.876Z" fill="white"/>
</svg>
