<svg width="118" height="116" viewBox="0 0 118 116" fill="none" xmlns="http://www.w3.org/2000/svg">
<path d="M59.3263 0.764038L41.535 31.5793L77.1175 31.5793L59.3263 0.764038ZM59.3263 115.087L77.1175 84.2719L41.535 84.2719L59.3263 115.087ZM0.568848 56.2883L31.3841 74.0795L31.3841 38.4971L0.568848 56.2883ZM117.255 56.2883L86.4392 38.4971L86.4392 74.0795L117.255 56.2883ZM56.2447 28.4978L56.2447 56.2883L62.4078 56.2883L62.4078 28.4978L56.2447 28.4978ZM56.2447 56.2883L56.2447 87.3534L62.4078 87.3534L62.4078 56.2883L56.2447 56.2883ZM28.3026 59.3698L59.3263 59.3698L59.3263 53.2068L28.3026 53.2068L28.3026 59.3698ZM59.3263 59.3698L89.5208 59.3698L89.5208 53.2068L59.3263 53.2068L59.3263 59.3698Z" fill="white"/>
</svg>
