<svg width="410" height="221" viewBox="0 0 410 221" fill="none" xmlns="http://www.w3.org/2000/svg">
<path d="M0.799805 142.444V0.843872H33.7998V53.2439C40.3331 44.4439 50.1998 40.0439 63.3998 40.0439C74.7331 40.0439 83.7998 43.4439 90.5998 50.2439C97.3998 56.9105 100.8 65.8439 100.8 77.0439V142.444H67.7998V86.0439C67.7998 80.9772 66.3331 76.9105 63.3998 73.8439C60.5998 70.7772 56.8665 69.2439 52.1998 69.2439C39.9331 69.2439 33.7998 78.9105 33.7998 98.2439V142.444H0.799805Z" fill="white"/>
<path d="M210.879 105.169C210.879 109.969 210.746 113.969 210.479 117.169H140.679C143.479 127.035 150.346 131.969 161.279 131.969C165.413 131.969 168.946 131.035 171.88 129.169C174.946 127.169 177.013 124.435 178.079 120.969L209.079 129.569C206.013 138.902 200.146 146.169 191.479 151.369C182.813 156.569 172.413 159.169 160.279 159.169C151.613 159.169 143.813 157.635 136.88 154.569C129.946 151.369 124.413 147.235 120.279 142.169C116.146 136.969 112.946 131.369 110.679 125.369C108.546 119.369 107.479 113.302 107.479 107.169C107.479 100.902 108.413 94.8352 110.279 88.9686C112.279 82.9686 115.213 77.4353 119.079 72.3686C122.946 67.1686 128.213 63.0352 134.879 59.9686C141.679 56.7686 149.413 55.1686 158.079 55.1686C167.146 55.1686 175.213 56.7686 182.279 59.9686C189.346 63.0352 194.88 67.1686 198.88 72.3686C202.88 77.4353 205.88 82.7686 207.88 88.3686C209.879 93.9686 210.879 99.5686 210.879 105.169ZM140.479 94.3686H175.279C175.013 89.8353 173.413 86.1686 170.479 83.3686C167.679 80.5686 163.546 79.1686 158.079 79.1686C148.746 79.1686 142.879 84.2353 140.479 94.3686Z" fill="white"/>
<path d="M217.519 179.607V38.0075H250.519V179.607H217.519Z" fill="white"/>
<path d="M262.206 192.572V50.9715H295.206V192.572H262.206Z" fill="white"/>
<path d="M394.294 205.732C384.16 215.598 371.294 220.532 355.694 220.532C340.094 220.532 327.227 215.598 317.094 205.732C306.96 195.865 301.894 183.465 301.894 168.532C301.894 153.598 306.96 141.198 317.094 131.332C327.227 121.465 340.094 116.532 355.694 116.532C371.294 116.532 384.16 121.465 394.294 131.332C404.427 141.198 409.494 153.598 409.494 168.532C409.494 183.465 404.427 195.865 394.294 205.732ZM340.494 185.932C344.36 190.332 349.427 192.532 355.694 192.532C361.96 192.532 366.96 190.332 370.694 185.932C374.56 181.532 376.494 175.732 376.494 168.532C376.494 161.332 374.56 155.532 370.694 151.132C366.96 146.732 361.96 144.532 355.694 144.532C349.427 144.532 344.36 146.732 340.494 151.132C336.76 155.532 334.894 161.332 334.894 168.532C334.894 175.732 336.76 181.532 340.494 185.932Z" fill="white"/>
</svg>
