<svg width="450" height="185" viewBox="0 0 450 185" fill="none" xmlns="http://www.w3.org/2000/svg">
<g filter="url(#filter0_f_22_9)">
<path d="M20.7998 162.663V21.0634H53.7998V73.4634C60.3331 64.6634 70.1998 60.2634 83.3998 60.2634C94.7331 60.2634 103.8 63.6633 110.6 70.4633C117.4 77.13 120.8 86.0634 120.8 97.2634V162.663H87.7998V106.263C87.7998 101.197 86.3331 97.13 83.3998 94.0633C80.5998 90.9967 76.8665 89.4633 72.1998 89.4633C59.9331 89.4633 53.7998 99.13 53.7998 118.463V162.663H20.7998Z" fill="white"/>
<path d="M230.879 110.263C230.879 115.063 230.746 119.063 230.479 122.263H160.679C163.479 132.13 170.346 137.063 181.279 137.063C185.413 137.063 188.946 136.13 191.88 134.263C194.946 132.263 197.013 129.53 198.079 126.063L229.079 134.663C226.013 143.997 220.146 151.263 211.479 156.463C202.813 161.663 192.413 164.263 180.279 164.263C171.613 164.263 163.813 162.73 156.88 159.663C149.946 156.463 144.413 152.33 140.279 147.263C136.146 142.063 132.946 136.463 130.679 130.463C128.546 124.463 127.479 118.397 127.479 112.263C127.479 105.997 128.413 99.93 130.279 94.0633C132.279 88.0633 135.213 82.53 139.079 77.4633C142.946 72.2633 148.213 68.13 154.879 65.0633C161.679 61.8633 169.413 60.2634 178.079 60.2634C187.146 60.2634 195.213 61.8633 202.279 65.0633C209.346 68.13 214.88 72.2633 218.88 77.4633C222.88 82.53 225.88 87.8633 227.88 93.4633C229.879 99.0633 230.879 104.663 230.879 110.263ZM160.479 99.4634H195.279C195.013 94.93 193.413 91.2633 190.479 88.4633C187.679 85.6633 183.546 84.2634 178.079 84.2634C168.746 84.2634 162.879 89.33 160.479 99.4634Z" fill="white"/>
<path d="M237.519 162.663V21.0634H270.519V162.663H237.519Z" fill="white"/>
<path d="M282.206 162.663V21.0634H315.206V162.663H282.206Z" fill="white"/>
<path d="M414.294 149.463C404.16 159.33 391.294 164.263 375.694 164.263C360.094 164.263 347.227 159.33 337.094 149.463C326.96 139.597 321.894 127.197 321.894 112.263C321.894 97.33 326.96 84.93 337.094 75.0634C347.227 65.1967 360.094 60.2634 375.694 60.2634C391.294 60.2634 404.16 65.1967 414.294 75.0634C424.427 84.93 429.494 97.33 429.494 112.263C429.494 127.197 424.427 139.597 414.294 149.463ZM360.494 129.663C364.36 134.063 369.427 136.263 375.694 136.263C381.96 136.263 386.96 134.063 390.694 129.663C394.56 125.263 396.494 119.463 396.494 112.263C396.494 105.063 394.56 99.2633 390.694 94.8633C386.96 90.4634 381.96 88.2634 375.694 88.2634C369.427 88.2634 364.36 90.4634 360.494 94.8633C356.76 99.2633 354.894 105.063 354.894 112.263C354.894 119.463 356.76 125.263 360.494 129.663Z" fill="white"/>
</g>
<defs>
<filter id="filter0_f_22_9" x="0.699804" y="0.963354" width="448.893" height="183.4" filterUnits="userSpaceOnUse" color-interpolation-filters="sRGB">
<feFlood flood-opacity="0" result="BackgroundImageFix"/>
<feBlend mode="normal" in="SourceGraphic" in2="BackgroundImageFix" result="shape"/>
<feGaussianBlur stdDeviation="10.05" result="effect1_foregroundBlur_22_9"/>
</filter>
</defs>
</svg>
