<svg width="30" height="9" viewBox="0 0 30 9" fill="none" xmlns="http://www.w3.org/2000/svg">
<path d="M13.7189 8.88931C13.0549 8.88931 12.5549 8.68531 12.2189 8.27731V8.79331H10.2389V0.297306H12.2189V3.22531C12.5789 2.84131 13.0909 2.64931 13.7549 2.64931C14.6109 2.64931 15.2909 2.92931 15.7949 3.48931C16.2989 4.04931 16.5509 4.80931 16.5509 5.76931C16.5509 6.73731 16.2949 7.50131 15.7829 8.06131C15.2789 8.61331 14.5909 8.88931 13.7189 8.88931ZM12.4589 6.81331C12.6909 7.07731 12.9949 7.20931 13.3709 7.20931C13.7469 7.20931 14.0469 7.07731 14.2709 6.81331C14.5029 6.54931 14.6189 6.20131 14.6189 5.76931C14.6189 5.33731 14.5029 4.98931 14.2709 4.72531C14.0469 4.46131 13.7469 4.32931 13.3709 4.32931C12.9949 4.32931 12.6909 4.46131 12.4589 4.72531C12.2269 4.98931 12.1109 5.33731 12.1109 5.76931C12.1109 6.20131 12.2269 6.54931 12.4589 6.81331Z" fill="white"/>
<path d="M17.0124 0.297306H19.0764V2.10931H17.0124V0.297306ZM17.0484 8.79331V2.74531H19.0284V8.79331H17.0484Z" fill="white"/>
<path d="M23.9698 8.72131C23.6578 8.83331 23.3258 8.88931 22.9738 8.88931C22.2378 8.88931 21.6418 8.69731 21.1858 8.31331C20.7378 7.92931 20.5138 7.37731 20.5138 6.65731V4.37731H19.5898V2.74531H20.5138V1.01731H22.4938V2.74531H23.9218V4.37731H22.4938V6.34531C22.4938 6.59331 22.5538 6.79331 22.6738 6.94531C22.7938 7.08931 22.9578 7.16131 23.1658 7.16131C23.4298 7.16131 23.6498 7.11731 23.8258 7.02931L23.9698 8.72131Z" fill="white"/>
<path d="M27.1071 8.88931C26.4191 8.88931 25.8351 8.71331 25.3551 8.36131C24.8751 8.00131 24.5431 7.56931 24.3591 7.06531L25.9431 6.46531C26.0071 6.72931 26.1431 6.95331 26.3511 7.13731C26.5671 7.32131 26.8191 7.41331 27.1071 7.41331C27.5391 7.41331 27.7551 7.26131 27.7551 6.95731C27.7551 6.82131 27.6471 6.71331 27.4311 6.63331C27.2151 6.54531 26.9551 6.46531 26.6511 6.39331C26.3471 6.31331 26.0431 6.21331 25.7391 6.09331C25.4351 5.97331 25.1751 5.77331 24.9591 5.49331C24.7431 5.20531 24.6351 4.84931 24.6351 4.42531C24.6351 3.93731 24.8351 3.52131 25.2351 3.17731C25.6351 2.82531 26.1591 2.64931 26.8071 2.64931C27.4552 2.64931 28.0191 2.78531 28.4991 3.05731C28.9791 3.32931 29.2871 3.68531 29.4231 4.12531L27.8511 4.77331C27.7791 4.53331 27.6471 4.34931 27.4551 4.22131C27.2711 4.09331 27.0831 4.02931 26.8911 4.02931C26.7391 4.02931 26.6111 4.06131 26.5071 4.12531C26.4111 4.18931 26.3631 4.27331 26.3631 4.37731C26.3631 4.50531 26.4391 4.61331 26.5911 4.70131C26.7511 4.78131 26.9471 4.84131 27.1791 4.88131C27.4191 4.91331 27.6751 4.97331 27.9471 5.06131C28.2191 5.14131 28.4711 5.24531 28.7031 5.37331C28.9431 5.49331 29.1391 5.68531 29.2911 5.94931C29.4511 6.21331 29.5311 6.53731 29.5311 6.92131C29.5311 7.45731 29.3031 7.92131 28.8471 8.31331C28.3911 8.69731 27.8111 8.88931 27.1071 8.88931Z" fill="white"/>
<rect width="2.42165" height="2.12695" transform="matrix(1 0 0 -1 5.47416 8.80509)" fill="#00F0FF"/>
<rect width="2.42165" height="2.12695" transform="matrix(1 0 0 -1 3.05251 2.42423)" fill="#00F0FF"/>
<rect width="2.42165" height="2.12695" transform="matrix(1 0 0 -1 5.47416 4.55118)" fill="#00F0FF"/>
<rect width="2.42165" height="2.12695" transform="matrix(1 0 0 -1 0.630867 4.55118)" fill="#00F0FF"/>
<rect width="2.42165" height="2.12695" transform="matrix(1 0 0 -1 3.05251 6.67813)" fill="#00F0FF"/>
</svg>
